<svg xmlns="http://www.w3.org/2000/svg" xml:space="preserve" viewBox="0 0 24 24">
   <g stroke-width=".07">
      <path
         fill="#00599c"
         d="M22.392 18c.167-.29.271-.616.271-.91V6.91c0-.294-.104-.62-.27-.91L12 12z"
      ></path>
      <path
         fill="#004482"
         d="m12.923 23.78 8.817-5.09c.254-.147.484-.4.652-.69L12 12 1.608 18c.167.29.398.543.652.69l8.816 5.09c.508.293 1.34.293 1.847 0z"
      ></path>
      <path
         fill="#659ad2"
         d="M22.392 6c-.167-.29-.398-.543-.652-.69L12.923.22c-.508-.293-1.339-.293-1.847 0L2.26 5.31c-.508.293-.924 1.013-.924 1.6v10.18c0 .294.104.62.271.91L12 12z"
      ></path>
   </g>
   <g fill="#fff">
      <path
         d="M12 19.11c-3.92 0-7.11-3.19-7.11-7.11S8.08 4.891 12 4.891a7.135 7.135 0 0 1 6.156 3.553l-3.076 1.78A3.57 3.57 0 0 0 12 8.446 3.559 3.559 0 0 0 8.445 12 3.559 3.559 0 0 0 12 15.555a3.57 3.57 0 0 0 3.08-1.778l3.077 1.78A7.135 7.135 0 0 1 12 19.11z"
      ></path>
      <path
         d="M18.32 11.605v-.79h-.79v.79h-.79v.79h.79v.79h.79v-.79h.79v-.79zM21.282 11.605v-.79h-.79v.79h-.79v.79h.79v.79h.79v-.79h.79v-.79z"
      ></path>
   </g>
</svg>
