<svg xmlns="http://www.w3.org/2000/svg" xml:space="preserve" viewBox="0 0 80 24">
   <path
      d="M5.705 24q-1.659 0-3.035-.424-1.377-.388-2.189-1.34-.811-.918-.811-2.542 0-1.376.706-2.612t1.906-2.188 2.647-1.412q.564-.176 1.27-.317.741-.177 1.306-.177t.565.53q0 .388-.46.494-.564.14-1.164.211-.565.036-1.165.212-1.2.388-2.258 1.2-1.024.777-1.66 1.836-.6 1.023-.6 2.188 0 1.306.707 2.047t1.835 1.059 2.435.317q1.836 0 4.06-.494 2.258-.459 4.552-1.341t4.341-2.082 3.53-2.647 2.047-3.071q.106-.282.176-.6.07-.318.07-.635 0-.988-.529-1.518-.494-.565-1.34-.812-.813-.282-1.765-.353-.918-.07-1.765-.07-1.835 0-3.706.176-1.835.142-3.706.142-1.059 0-2.223-.177t-1.977-.741q-.776-.565-.776-1.73 0-1.517.952-2.682t2.506-2.012q1.589-.847 3.424-1.376 1.87-.565 3.67-.812T20.493 0q.812 0 1.87.106 1.06.07 2.048.353 1.023.282 1.659.882.67.565.67 1.518 0 .776-.388 1.13T25.33 4.8q-.07.035-.177.106-.07.035-.212.035-.211 0-.423-.141-.177-.177-.177-.388 0-.318.318-.46t.6-.352q.318-.212.318-.741 0-.635-.6-.988-.565-.389-1.447-.565-.847-.177-1.694-.212-.812-.07-1.342-.07-1.164 0-2.682.211-1.518.177-3.141.6-1.588.389-3.035 1.024-1.412.635-2.4 1.553-.953.882-1.236 2.082l-.07.282v.247q0 .847.67 1.236.67.353 1.588.423t1.624.07q1.87 0 3.706-.14t3.67-.142q1.095 0 2.224.142 1.165.106 2.118.494.988.353 1.588 1.094.6.706.6 1.906 0 .776-.318 1.588-.635 1.8-2.188 3.388-1.553 1.553-3.706 2.824t-4.588 2.188q-2.4.917-4.8 1.412Q7.752 24 5.705 24zm26.387-1.165q-.6 0-1.094-.353t-.494-1.235q0-1.13.564-2.4.6-1.27 1.483-2.788-1.13 1.306-2.541 2.823-1.377 1.518-2.753 2.436-1.2.776-1.977.776-.635 0-.953-.423-.353-.424-.353-1.094 0-.777.353-1.518.777-1.835 1.765-3.988.988-2.188 2.082-3.847.106-.141.212-.212.141-.106.318-.106.247 0 .423.141.212.141.212.353 0 .07-.07.212-.212.494-.777 1.588-.53 1.059-1.235 2.435t-1.448 2.824q-.564 1.094-.564 1.906 0 .635.459.635.211 0 .458-.141 1.06-.6 1.871-1.412t1.588-1.659q.494-.53.953-1.058.494-.53.953-1.095.177-.176.67-.847.53-.67 1.165-1.482.636-.847 1.13-1.482.53-.67.635-.812.282-.282.847-.282.282 0 .494.14.247.107.247.39 0 .246-.353.846-.317.565-.776 1.27-.459.671-.882 1.236t-.6.847q-.142.247-.53.953-.388.67-.847 1.588-.423.883-.741 1.73t-.318 1.411q0 .636.53.636.564 0 1.306-.706t1.552-1.73q.812-1.058 1.518-2.082.706-1.059 1.2-1.765.141-.176.282-.211.142-.036.212-.036.353 0 .424.424 0 .106-.247.6t-.494.812q-.318.459-.989 1.412-.635.917-1.482 1.976-.812 1.024-1.8 1.835-.635.53-1.588.53zm9.304-.282q-.67 0-1.164-.424-.46-.423-.46-1.34 0-.742.283-1.518.283-.812.53-1.271.564-1.13 1.2-2.082.635-.989.953-1.412-.636.035-1.518-.318-.847-.353-1.2-.917-.459.67-1.306 2.188-.847 1.482-2.153 3.141-.212.282-.494.282-.53 0-.53-.458 0-.177.107-.318.529-.741 1.305-1.906.812-1.2 1.553-2.47.777-1.306 1.236-2.33.14-.318.282-.67.176-.354.318-.671.14-.247.388-.424.247-.211.565-.211.282 0 .564.247.283.211.283.494 0 .317-.247.811-.212.46-.46.953t-.246.883q0 .317.53.423t.776.106q.952 0 1.588-.388t.882-.388q.212 0 .353.176.177.141.177.318 0 .247-.212.423-.494.46-1.165 1.306t-1.341 1.836-1.165 1.94q-.141.354-.423.989-.247.635-.247 1.2 0 .953.67.953.282 0 .635-.212.389-.212.742-.494.847-.776 1.482-1.518.67-.776 1.341-1.729t1.553-2.294q.141-.247.494-.247.459 0 .459.423 0 .212-.212.6-.494.883-1.306 1.942-.776 1.058-1.623 2.011-.812.918-1.447 1.412-1.13.953-2.33.953zm7.54.318q-.953 0-1.518-.495t-.847-1.2q-.247-.74-.247-1.376 0-.847.318-1.87.318-1.06.565-1.448 0-.106-.036-.211v-.248q0-.952.283-1.976.317-1.2 1.13-2.188.81-1.024 2.011-1.659 1.235-.635 2.682-.635 1.694 0 2.612.917.918.883.918 2.33 0 2.012-.741 3.459-.706 1.447-1.518 2.788-.141.282-.247.459t.212.176q1.023 0 2.011-.847t2.506-3.212q.106-.176.212-.282t.318-.106h.07q.389 0 .46.459 0 .106-.071.247-.883 1.553-1.8 2.682-.883 1.13-2.118 1.73-1.235.564-3.106.6-.741.705-1.835 1.305-1.059.6-2.224.6zm3.388-3.247h.353q.741-.883 1.412-2.012.706-1.13 1.13-2.33.423-1.235.423-2.329 0-1.023-.53-1.73-.529-.74-1.835-.74-.882 0-1.73.388-.81.353-1.41.882l.105.141q.07-.035.212-.035.211 0 .388.176.176.142.176.318 0 .106-.035.176-.035.071-.106.142-.6.882-1.164 1.658t-1.06 1.765q-.105.247-.246.494.282 1.306 1.306 2.188 1.058.848 2.611.848zm-3.176 2.258q.706 0 1.412-.423.705-.459 1.2-.847-2.683-.283-3.953-2.365-.036.247-.141.741-.106.494-.106.989 0 .705.317 1.305t1.27.6zm10.75.565q-.67 0-.882-.6t-.211-1.059q0-.811.211-2.082t.565-2.647q-.423.67-.917 1.341l-.848 1.236q-.14.247-.423.247-.247 0-.424-.212-.211-.212-.035-.459.459-.67 1.2-1.8.777-1.13 1.553-2.365t1.306-2.153q.176-.317.318-.564.176-.283.317-.494.247-.247.67-.247.248 0 .424.14.212.142.212.389 0 .07-.035.141-.036.07-.07.141-.354.565-.636 1.165t-.494 1.2q-.53 1.623-1.024 3.388-.459 1.73-.53 3.424l.142.035q.812-1.27 1.977-2.753 1.2-1.518 2.611-3 1.412-1.518 2.894-2.753 1.483-1.27 2.86-2.047.211-.106.387-.106.248 0 .424.177.176.14.176.353t-.247.388q-.564.353-1.129.741l-1.059.776q-2.047 1.553-3.741 3.424-1.694 1.835-3.07 3.882-.318.46-.6.953t-.565.988q-.212.283-.565.53-.318.282-.741.282zM75.098 7.66q-.177 0-.388-.07-.212-.071-.212-.318 0-.177.106-.318.282-.53 1.023-.917.777-.389 1.165-.389.176 0 .388.106.212.07.212.318 0 .6-.741 1.094-.706.494-1.553.494zm-3.953 14.435q-1.2 0-1.906-.67t-.706-1.871q0-.706.141-1.377.141-.705.389-1.376.14-.388.564-1.27.46-.918 1.059-1.907.6-1.023 1.165-1.729.564-.706.988-.706.176 0 .459.141.317.106.317.353 0 .141-.14.353-.812.918-1.695 2.188t-1.482 2.647-.6 2.647q0 1.624 1.553 1.624 1.058 0 2.117-1.024 1.094-1.023 2.4-2.753.388-.494.67-.952.318-.495.566-.848.247-.247.529-.247.423 0 .423.318 0 .388-.564 1.235-.565.847-1.27 1.765-1.377 1.694-2.4 2.577-1.024.882-2.577.882z"
      aria-label="Surovi"
      paint-order="markers fill stroke"
   />
</svg>
