<svg xmlns="http://www.w3.org/2000/svg" xml:space="preserve" viewBox="0 0 24 24">
   <path
      fill="#4e7896"
      d="M8.872 18.554s-.922.561.642.722c1.882.24 2.885.2 4.968-.2a7.515 7.515 0 0 0 1.323.64c-4.688 2.005-10.62-.12-6.933-1.162zm-.6-2.605s-1.002.761.561.923c2.044.2 3.647.24 6.413-.32a2.445 2.445 0 0 0 .962.6c-5.651 1.683-11.982.16-7.936-1.202zm11.06 4.568s.681.56-.76 1.002c-2.686.802-11.262 1.042-13.666 0-.841-.36.761-.882 1.275-.962.521-.12.803-.12.803-.12-.923-.641-6.132 1.322-2.645 1.883 9.578 1.563 17.472-.681 14.987-1.803zM9.305 13.224s-4.368 1.042-1.563 1.402c1.203.16 3.567.12 5.771-.04 1.803-.16 3.607-.48 3.607-.48s-.64.28-1.082.561c-4.447 1.163-12.984.642-10.539-.56 2.084-1.003 3.807-.882 3.807-.882zm7.815 4.368c4.488-2.325 2.405-4.568.962-4.288-.36.08-.521.16-.521.16s.12-.24.4-.32c2.846-1.002 5.09 3.005-.922 4.568 0 0 .04-.04.08-.12zm-7.372 6.331c4.327.28 10.94-.16 11.1-2.205 0 0-.32.803-3.566 1.403-3.687.68-8.256.6-10.94.16 0 0 .56.48 3.406.641z"
   ></path>
   <path
      fill="#f58219"
      d="M14.403 0s2.485 2.524-2.364 6.332c-3.887 3.085-.881 4.848 0 6.852-2.284-2.043-3.927-3.847-2.805-5.53 1.643-2.485 6.171-3.68 5.17-7.654zm-1.275 11.501c1.163 1.322-.32 2.524-.32 2.524s2.965-1.522 1.603-3.406c-1.242-1.803-2.205-2.685 3.005-5.69 0 0-8.215 2.043-4.288 6.572z"
   ></path>
</svg>
