<svg xmlns="http://www.w3.org/2000/svg" xml:space="preserve" viewBox="0 0 24 24">
   <rect width="24" height="24" fill="#ffca28" rx="15%"></rect>
   <path
      fill="#fff"
      d="M9.023 22c2.241 0 3.538-1.268 3.538-3.445v-7.068h-2.163v7.047c0 1.045-.487 1.597-1.397 1.597-.852 0-1.325-.559-1.36-1.36l-.008-.044H5.535l.007.065C5.592 20.732 6.89 22 9.022 22zm8.81 0C20.438 22 22 20.74 22 18.756v-.007c0-1.626-.974-2.507-3.137-2.936l-1.095-.223c-1.19-.236-1.72-.615-1.72-1.267v-.007c0-.738.667-1.246 1.777-1.254 1.067 0 1.812.495 1.92 1.304l.006.086h2.041l-.007-.136c-.1-1.812-1.568-3.008-3.96-3.008-2.292 0-3.939 1.246-3.939 3.137v.007c0 1.554 1.031 2.528 3.072 2.936l1.089.215c1.282.265 1.79.616 1.79 1.318v.007c0 .787-.752 1.31-1.948 1.31-1.181 0-2.034-.501-2.17-1.303l-.014-.079h-2.04l.006.115C13.793 20.876 15.376 22 17.832 22z"
   ></path>
</svg>
