<svg xmlns="http://www.w3.org/2000/svg" xml:space="preserve" viewBox="0 0 18.522 24">
  <path d="M9.261 0C4.155 0 0 4.154 0 9.261c0 1.763.48 3.635 1.428 5.564.752 1.53 1.797 3.1 3.109 4.665 2.226 2.66 4.417 4.365 4.509 4.436A.351.351 0 0 0 9.26 24a.351.351 0 0 0 .215-.074c.092-.07 2.283-1.777 4.51-4.436 1.31-1.566 2.356-3.135 3.108-4.665.948-1.929 1.428-3.8 1.428-5.564C18.522 4.155 14.368 0 9.261 0zm0 6.06a3.205 3.205 0 0 1 3.202 3.201c0 1.766-1.436 3.202-3.202 3.202S6.06 11.027 6.06 9.26a3.205 3.205 0 0 1 3.202-3.202z" data-original="#ff4a4a"/>
</svg>